<svg width="42" height="64" viewBox="0 0 42 64" fill="none" xmlns="http://www.w3.org/2000/svg">
<path d="M1.5625 60.0781C1.5625 53.9919 6.49636 49.058 12.5826 49.058H29.7133C35.7995 49.058 40.7334 53.9919 40.7334 60.0781V78.3516H1.5625V60.0781Z" fill="#F15165" stroke="#363A50" stroke-width="1.25944"/>
<mask id="mask0" mask-type="alpha" maskUnits="userSpaceOnUse" x="0" y="48" width="42" height="31">
<path d="M1.5625 60.0781C1.5625 53.9919 6.49636 49.058 12.5826 49.058H29.7133C35.7995 49.058 40.7334 53.9919 40.7334 60.0781V78.3516H1.5625V60.0781Z" fill="white" stroke="white" stroke-width="1.25944"/>
</mask>
<g mask="url(#mask0)">
<path d="M1.5625 60.0781C1.5625 53.9919 6.49636 49.058 12.5826 49.058H29.7133C35.7995 49.058 40.7334 53.9919 40.7334 60.0781V78.3516H1.5625V60.0781Z" fill="#363A50" stroke="#363A50" stroke-width="1.25944"/>
<path fill-rule="evenodd" clip-rule="evenodd" d="M17.9235 50.6636L8.40143 59.6953C8.17756 59.9076 8.05078 60.2026 8.05078 60.5112L8.05078 76.1319H33.6245V59.8774C33.6245 59.5838 33.5097 59.3019 33.3046 59.0918L24.7975 50.3784L17.9235 50.6636Z" fill="#E72F47"/>
<mask id="mask1" mask-type="alpha" maskUnits="userSpaceOnUse" x="8" y="50" width="26" height="27">
<path fill-rule="evenodd" clip-rule="evenodd" d="M17.9235 50.6636L8.40143 59.6953C8.17756 59.9076 8.05078 60.2026 8.05078 60.5112L8.05078 76.1319H33.6245V59.8774C33.6245 59.5838 33.5097 59.3019 33.3046 59.0918L24.7975 50.3784L17.9235 50.6636Z" fill="white"/>
</mask>
<g mask="url(#mask1)">
<path fill-rule="evenodd" clip-rule="evenodd" d="M17.9235 50.6636L8.40143 59.6953C8.17756 59.9076 8.05078 60.2026 8.05078 60.5112L8.05078 76.1319H33.6245V59.8774C33.6245 59.5838 33.5097 59.3019 33.3046 59.0918L24.7975 50.3784L17.9235 50.6636Z" fill="#F7334C"/>
<path fill-rule="evenodd" clip-rule="evenodd" d="M21.1035 52.271C21.1035 52.271 27.4757 59.018 28.8501 62.6413C30.2244 66.2647 23.7273 76.0104 23.7273 76.0104L42.7189 76.1353L46.4672 55.8944C46.4672 55.8944 38.3458 46.7734 37.5962 46.7734C36.8465 46.7734 30.2244 45.524 30.2244 45.524L21.1035 52.271Z" fill="black" fill-opacity="0.1"/>
</g>
<path fill-rule="evenodd" clip-rule="evenodd" d="M25.5762 49.0893C25.5762 49.0893 44.9425 49.5207 40.1946 75.7024L41.9439 75.5208L42.5686 58.0287L40.4445 48.6578L35.0719 46.4088L25.5762 49.0893Z" fill="black" fill-opacity="0.1"/>
<path fill-rule="evenodd" clip-rule="evenodd" d="M6.73438 74.4847L7.98382 59.6163L8.10876 74.1206L6.73438 74.4847Z" fill="black" fill-opacity="0.2"/>
</g>
<path d="M40.8461 30.4728C40.8461 32.7356 39.0143 34.5682 36.7566 34.5682C34.4989 34.5682 32.667 32.7356 32.667 30.4728C32.667 28.2101 34.4989 26.3775 36.7566 26.3775C39.0143 26.3775 40.8461 28.2101 40.8461 30.4728Z" fill="#F9CCB6" stroke="#363A50" stroke-width="1.5743"/>
<path fill-rule="evenodd" clip-rule="evenodd" d="M37.3771 32.8371C38.3432 32.8371 39.1264 32.0539 39.1264 31.0878C39.1264 30.1218 38.3432 29.3386 37.3771 29.3386C36.4111 29.3386 35.6279 30.1218 35.6279 31.0878C35.6279 32.0539 36.4111 32.8371 37.3771 32.8371Z" fill="black" fill-opacity="0.1"/>
<path d="M9.22503 30.4728C9.22503 32.7356 7.39319 34.5682 5.13549 34.5682C2.87778 34.5682 1.04594 32.7356 1.04594 30.4728C1.04594 28.2101 2.87778 26.3775 5.13549 26.3775C7.39319 26.3775 9.22503 28.2101 9.22503 30.4728Z" fill="#F9CCB6" stroke="#363A50" stroke-width="1.5743"/>
<path fill-rule="evenodd" clip-rule="evenodd" d="M4.13203 32.5872C5.0981 32.5872 5.88125 31.804 5.88125 30.838C5.88125 29.8719 5.0981 29.0887 4.13203 29.0887C3.16596 29.0887 2.38281 29.8719 2.38281 30.838C2.38281 31.804 3.16596 32.5872 4.13203 32.5872Z" fill="black" fill-opacity="0.1"/>
<rect x="17.5185" y="42.0373" width="7.84226" height="9.97534" rx="3.92113" fill="#F9CCB6" stroke="#363A50" stroke-width="1.5743"/>
<mask id="mask2" mask-type="alpha" maskUnits="userSpaceOnUse" x="16" y="41" width="11" height="12">
<rect x="17.5185" y="42.0373" width="7.84226" height="9.97534" rx="3.92113" fill="white" stroke="white" stroke-width="1.5743"/>
</mask>
<g mask="url(#mask2)">
<rect x="16.5068" y="39.4504" width="9.75339" height="13.0726" rx="4.8767" fill="#F9CCB6"/>
<path fill-rule="evenodd" clip-rule="evenodd" d="M19.2732 44.3241C19.2732 44.3241 17.924 48.5978 21.4093 50.8472C24.8946 53.0965 20.7347 52.984 20.7347 52.984L16.1251 49.1602L16.0127 44.9989L19.2732 44.3241Z" fill="#F8CCB8"/>
<path fill-rule="evenodd" clip-rule="evenodd" d="M23.2111 45.0808C23.2111 45.0808 24.8353 51.8278 19.0879 50.3285L20.0874 51.9528L24.2106 50.9532L26.3347 47.4548L25.3351 45.0808H23.2111Z" fill="black" fill-opacity="0.05"/>
</g>
<path fill-rule="evenodd" clip-rule="evenodd" d="M4.2257 24.5187C4.76202 15.653 12.1084 8.73764 20.9903 8.73764C29.8722 8.73764 37.2186 15.653 37.7549 24.5187L37.9584 27.8824C38.5497 37.6565 30.7823 45.908 20.9903 45.908C11.1983 45.908 3.43094 37.6566 4.02222 27.8824L4.2257 24.5187Z" fill="#F9CCB6"/>
<mask id="mask3" mask-type="alpha" maskUnits="userSpaceOnUse" x="3" y="8" width="35" height="38">
<path fill-rule="evenodd" clip-rule="evenodd" d="M4.2257 24.5187C4.76202 15.653 12.1084 8.73764 20.9903 8.73764C29.8722 8.73764 37.2186 15.653 37.7549 24.5187L37.9584 27.8824C38.5497 37.6565 30.7823 45.908 20.9903 45.908C11.1983 45.908 3.43094 37.6566 4.02222 27.8824L4.2257 24.5187Z" fill="white"/>
</mask>
<g mask="url(#mask3)">
<path d="M23.5727 44.8832H23.5723H23.5703H23.5683H23.5663H23.5642H23.562H23.5599H23.5577H23.5555H23.5532H23.5509H23.5486H23.5462H23.5438H23.5413H23.5389H23.5363H23.5338H23.5312H23.5286H23.5259H23.5232H23.5205H23.5177H23.5149H23.5121H23.5092H23.5063H23.5034H23.5004H23.4974H23.4943H23.4913H23.4881H23.485H23.4818H23.4786H23.4753H23.472H23.4687H23.4653H23.4619H23.4585H23.4551H23.4516H23.448H23.4445H23.4408H23.4372H23.4335H23.4298H23.4261H23.4223H23.4185H23.4147H23.4108H23.4069H23.4029H23.399H23.3949H23.3909H23.3868H23.3827H23.3786H23.3744H23.3702H23.3659H23.3616H23.3573H23.353H23.3486H23.3442H23.3397H23.3353H23.3307H23.3262H23.3216H23.317H23.3123H23.3077H23.303H23.2982H23.2934H23.2886H23.2838H23.2789H23.274H23.269H23.2641H23.2591H23.254H23.2489H23.2438H23.2387H23.2335H23.2283H23.2231H23.2178H23.2125H23.2072H23.2018H23.1964H23.191H23.1856H23.1801H23.1745H23.169H23.1634H23.1578H23.1521H23.1465H23.1407H23.135H23.1292H23.1234H23.1176H23.1117H23.1058H23.0999H23.0939H23.0879H23.0819H23.0758H23.0697H23.0636H23.0575H23.0513H23.0451H23.0388H23.0326H23.0263H23.0199H23.0136H23.0072H23.0007H22.9943H22.9878H22.9813H22.9747H22.9681H22.9615H22.9549H22.9482H22.9415H22.9348H22.928H22.9212H22.9144H22.9076H22.9007H22.8938H22.8868H22.8799H22.8729H22.8658H22.8588H22.8517H22.8446H22.8374H22.8302H22.823H22.8158H22.8085H22.8012H22.7939H22.7866H22.7792H22.7718H22.7643H22.7568H22.7493H22.7418H22.7343H22.7267H22.7191H22.7114H22.7037H22.696H22.6883H22.6805H22.6728H22.6649H22.6571H22.6492H22.6413H22.6334H22.6254H22.6175H22.6094H22.6014H22.5933H22.5852H22.5771H22.5689H22.5608H22.5525H22.5443H22.536H22.5277H22.5194H22.5111H22.5027H22.4943H22.4859H22.4774H22.4689H22.4604H22.4519H22.4433H22.4347H22.4261H22.4174H22.4087H22.4H22.3913H22.3825H22.3737H22.3649H22.3561H22.3472H22.3383H22.3294H22.3205H22.3115H22.3025H22.2934H22.2844H22.2753H22.2662H22.2571H22.2479H22.2387H22.2295H22.2203H22.211H22.2017H22.1924H22.183H22.1737H22.1643H22.1549H22.1454H22.1359H22.1264H22.1169H22.1073H22.0978H22.0882H22.0785H22.0689H22.0592H22.0495H22.0398H22.03H22.0202H22.0104H22.0006H21.9907H21.9809H21.9709H21.961H21.9511H21.9411H21.9311H21.921H21.911H21.9009H21.8908H21.8806H21.8705H21.8603H21.8501H21.8399H21.8296H21.8193H21.809H21.7987H21.7884H21.778H21.7676H21.7571H21.7467H21.7362H21.7257H21.7152H21.7047H21.6941H21.6835H21.6729H21.6622H21.6516H21.6409H21.6302H21.6194H21.6087H21.5979H21.5871H21.5762H21.5654H21.5545H21.5436H21.5327H21.5217H21.5108H21.4998H21.4888H21.4777H21.4667H21.4556H21.4445H21.4333H21.4222H21.411H21.3998H21.3886H21.3773H21.3661H21.3548H21.3435H21.3321H21.3208H21.3094H21.298H21.2865H21.2751H21.2636H21.2521H21.2406H21.2291H21.2175H21.2059H21.1943H21.1827H21.1711H21.1594H21.1477H21.136H21.1243H21.1125H21.1007H21.0889H21.0771H21.0653H21.0534H21.0415H21.0296H21.0177H21.0057H20.9938H20.9818H20.9698H20.9577H20.9457H20.9336H20.9215H20.9094H20.8972H20.8851H20.8729H20.8607H20.8485H20.8362H20.824H20.8117H20.7994H20.7871H20.7747H20.7623H20.75H20.7375H20.7251H20.7127H20.7002H20.6877H20.6752H20.6627H20.6501H20.6376H20.625H20.6124H20.5997H20.5871H20.5744H20.5617H20.549H20.5363H20.5236H20.5108H20.498H20.4852H20.4724H20.4595H20.4467H20.4338H20.4209H20.408H20.395H20.3821H20.3691H20.3561H20.3431H20.3301H20.317H20.3039H20.2908H20.2777H20.2646H20.2515H20.2383H20.2251H20.2119H20.1987H20.1854H20.1722H20.1589H20.1456H20.1323H20.119H20.1056H20.0922H20.0789H20.0655H20.052H20.0386H20.0251H20.0117H19.9982H19.9846H19.9711H19.9576H19.944H19.9304H19.9168H19.9032H19.8896H19.8759H19.8622H19.8486H19.8349H19.8211H19.8074H19.7936H19.7799H19.7661H19.7523H19.7384H19.7246C11.2454 44.8832 4.46204 37.8356 4.78993 29.3631C5.0645 22.2683 10.2938 16.3465 17.3002 15.1962L19.3743 14.8556C28.6761 13.3285 37.1027 20.5682 36.9941 29.994C36.9068 37.5854 31.1164 43.9602 23.5727 44.8832Z" fill="#F9CCB6" stroke="#363A50" stroke-width="1.5743"/>
<path fill-rule="evenodd" clip-rule="evenodd" d="M15.1696 18.3452C25.2044 18.3452 33.3393 15.7714 33.3393 12.5964C33.3393 9.42145 25.2044 6.84763 15.1696 6.84763C5.13482 6.84763 -3 9.42145 -3 12.5964C-3 15.7714 5.13482 18.3452 15.1696 18.3452Z" fill="#F8C4AC"/>
<path fill-rule="evenodd" clip-rule="evenodd" d="M34.3107 25.3646C34.3107 25.3646 35.5602 48.8541 8.44727 41.8572L21.1916 45.8554L35.935 43.6064L38.059 33.9857V26.8639L34.3107 25.3646Z" fill="black" fill-opacity="0.05"/>
</g>
<path fill-rule="evenodd" clip-rule="evenodd" d="M30.0298 29.4383C28.5579 29.6715 27.0568 27.9165 27.0568 27.9165C27.0568 27.9165 27.9421 25.7836 29.414 25.5505C30.8859 25.3173 32.387 27.0723 32.387 27.0723C32.387 27.0723 31.5017 29.2052 30.0298 29.4383Z" fill="white"/>
<path fill-rule="evenodd" clip-rule="evenodd" d="M31.4971 30.1261C31.4971 30.1261 29.8728 31.8753 26.9991 30.376L31.4971 30.1261Z" fill="black" fill-opacity="0.03"/>
<path fill-rule="evenodd" clip-rule="evenodd" d="M9.50684 30.1261C9.50684 30.1261 11.1311 31.8753 14.0048 30.376L9.50684 30.1261Z" fill="black" fill-opacity="0.03"/>
<path d="M31.2412 21.4692C30.4583 20.1132 28.2988 19.8944 26.4178 20.9804" stroke="#363A50" stroke-width="1.10201" stroke-linecap="round"/>
<path d="M10.6865 21.4692C11.4694 20.1132 13.6289 19.8944 15.51 20.9804" stroke="#363A50" stroke-width="1.10201" stroke-linecap="round"/>
<path d="M34.989 25.2237L34.9466 25.7587L35.4291 25.9937L37.5385 27.0208L38.8751 27.6716L38.6621 26.2003L36.5642 11.7053L36.5159 11.3714L36.2407 11.1762L35.7852 11.8181C36.2407 11.1762 36.2406 11.1761 36.2405 11.176L36.24 11.1756L36.2381 11.1743L36.2311 11.1693L36.2042 11.1503L36.1006 11.0775C36.0101 11.014 35.8774 10.9213 35.7075 10.8039C35.3679 10.569 34.8798 10.2347 34.2838 9.83622C33.0928 9.03977 31.4676 7.98402 29.7354 6.95057C28.0072 5.91947 26.1541 4.89944 24.5113 4.18253C23.6906 3.82437 22.903 3.53326 22.1974 3.35651C21.5111 3.18457 20.8146 3.09753 20.2184 3.23318C18.4747 3.62995 15.6048 4.70135 12.7171 6.27613C9.83458 7.84814 6.84409 9.97022 4.93599 12.5102L4.8017 12.689L4.78143 12.9116L3.65066 25.3366L3.56198 26.311L4.53277 26.189L6.93229 25.8873L7.47471 25.8191L7.60022 25.287L9.7795 16.0481C9.84584 16.0603 9.91619 16.0733 9.9904 16.0869C10.5948 16.1976 11.4552 16.3502 12.4808 16.5184C14.5301 16.8546 17.248 17.2543 19.9061 17.5051C22.5454 17.7541 25.1942 17.8635 27.0735 17.5903C27.9891 17.4572 28.8677 17.2153 29.4487 16.7344C29.7341 16.4982 29.966 16.1886 30.0722 15.8008C30.683 16.0241 31.4879 16.4108 32.2689 17.0622C33.7965 18.3364 35.3468 20.7161 34.989 25.2237Z" fill="#886653" stroke="#363A4F" stroke-width="1.5743"/>
<mask id="mask4" mask-type="alpha" maskUnits="userSpaceOnUse" x="2" y="2" width="38" height="28">
<path d="M34.989 25.2237L34.9466 25.7587L35.4291 25.9937L37.5385 27.0208L38.8751 27.6716L38.6621 26.2003L36.5642 11.7053L36.5159 11.3714L36.2407 11.1762L35.7852 11.8181C36.2407 11.1762 36.2406 11.1761 36.2405 11.176L36.24 11.1756L36.2381 11.1743L36.2311 11.1693L36.2042 11.1503L36.1006 11.0775C36.0101 11.014 35.8774 10.9213 35.7075 10.8039C35.3679 10.569 34.8798 10.2347 34.2838 9.83622C33.0928 9.03977 31.4676 7.98402 29.7354 6.95057C28.0072 5.91947 26.1541 4.89944 24.5113 4.18253C23.6906 3.82437 22.903 3.53326 22.1974 3.35651C21.5111 3.18457 20.8146 3.09753 20.2184 3.23318C18.4747 3.62995 15.6048 4.70135 12.7171 6.27613C9.83458 7.84814 6.84409 9.97022 4.93599 12.5102L4.8017 12.689L4.78143 12.9116L3.65066 25.3366L3.56198 26.311L4.53277 26.189L6.93229 25.8873L7.47471 25.8191L7.60022 25.287L9.7795 16.0481C9.84584 16.0603 9.91619 16.0733 9.9904 16.0869C10.5948 16.1976 11.4552 16.3502 12.4808 16.5184C14.5301 16.8546 17.248 17.2543 19.9061 17.5051C22.5454 17.7541 25.1942 17.8635 27.0735 17.5903C27.9891 17.4572 28.8677 17.2153 29.4487 16.7344C29.7341 16.4982 29.966 16.1886 30.0722 15.8008C30.683 16.0241 31.4879 16.4108 32.2689 17.0622C33.7965 18.3364 35.3468 20.7161 34.989 25.2237Z" fill="white" stroke="white" stroke-width="1.5743"/>
</mask>
<g mask="url(#mask4)">
<path fill-rule="evenodd" clip-rule="evenodd" d="M28.4308 12.0335C28.4308 12.0335 37.247 15.8252 36.4605 25.7361L38.6629 26.8085L38.8202 9.3258C38.8202 9.3258 36.7751 5.07326 33.3142 5.86076C29.8533 6.64827 28.1297 -9.41688 4.21812 9.1683C4.21812 9.1683 1.92775 13.8712 7.11907 15.2887L3.73942 25.8635L6.24475 25.5485L8.70061 15.4893C8.70061 15.4893 25.2845 16.916 28.4308 12.0335Z" fill="#886653"/>
<path opacity="0.6" d="M17.1436 26.7786C19.0664 25.8407 19.1432 22.0419 17.3151 18.2936V18.2936C15.4869 14.5454 12.4461 12.2671 10.5233 13.2049" stroke="#664C3C" stroke-width="1.10201" stroke-linecap="round"/>
<path opacity="0.6" d="M22.6494 24.2585C24.5723 23.3207 24.6491 19.5219 22.8209 15.7736V15.7736C20.9928 12.0254 17.952 9.74708 16.0291 10.6849" stroke="#664C3C" stroke-width="1.10201" stroke-linecap="round"/>
<path opacity="0.6" d="M27.3691 21.1085C29.292 20.1706 29.3688 16.3718 27.5407 12.6236V12.6236C25.7125 8.87531 22.6717 6.59703 20.7488 7.53488" stroke="#664C3C" stroke-width="1.10201" stroke-linecap="round"/>
</g>
<path fill-rule="evenodd" clip-rule="evenodd" d="M29.7212 28.2678C30.2425 28.2678 30.6651 27.8447 30.6651 27.3228C30.6651 26.8009 30.2425 26.3778 29.7212 26.3778C29.1999 26.3778 28.7773 26.8009 28.7773 27.3228C28.7773 27.8447 29.1999 28.2678 29.7212 28.2678Z" fill="#363A50"/>
<path d="M19.0928 34.1175C19.0928 34.1175 19.9859 35.5524 21.0876 35.5524C22.1894 35.5524 23.0825 34.1175 23.0825 34.1175" stroke="#363A50" stroke-width="1.10201" stroke-linecap="round"/>
<path d="M2.92188 29.8829C3.59293 29.4797 4.46339 29.6962 4.86612 30.3665V30.3665C5.26885 31.0367 5.05132 31.9069 4.38027 32.3101" stroke="#363A50" stroke-width="0.648148" stroke-linecap="round"/>
<path d="M37.0459 29.7906C37.6367 29.2769 38.5316 29.339 39.0446 29.9291V29.9291C39.5576 30.5192 39.4945 31.414 38.9036 31.9276" stroke="#363A50" stroke-width="0.648148" stroke-linecap="round"/>
<path d="M18.8613 38.88C18.8613 39.7499 20.5413 39.4054 22.6137 39.4054" stroke="#363A50" stroke-width="1.10201" stroke-linecap="round"/>
<path fill-rule="evenodd" clip-rule="evenodd" d="M19.2363 40.7542H21.7352L20.4858 41.9943L19.2363 40.7542Z" fill="black" fill-opacity="0.05"/>
<path fill-rule="evenodd" clip-rule="evenodd" d="M12.2964 29.4383C13.7683 29.6715 15.2694 27.9165 15.2694 27.9165C15.2694 27.9165 14.3841 25.7836 12.9122 25.5505C11.4403 25.3173 9.93918 27.0723 9.93918 27.0723C9.93918 27.0723 10.8245 29.2052 12.2964 29.4383Z" fill="white"/>
<path fill-rule="evenodd" clip-rule="evenodd" d="M12.5747 28.2678C13.096 28.2678 13.5186 27.8447 13.5186 27.3228C13.5186 26.8009 13.096 26.3778 12.5747 26.3778C12.0534 26.3778 11.6309 26.8009 11.6309 27.3228C11.6309 27.8447 12.0534 28.2678 12.5747 28.2678Z" fill="#363A50"/>
<path fill-rule="evenodd" clip-rule="evenodd" d="M4.53139 7.5418C4.78568 5.59255 6.16264 3.97566 8.05704 3.45081C12.0524 2.3439 18.7857 0.59259 21.3936 0.59259C23.7502 0.59259 30.0036 2.31237 33.7887 3.42063C35.6489 3.96529 36.9902 5.56658 37.2409 7.48861L38.5877 17.8123C38.976 20.7888 36.6586 23.4281 33.6569 23.4281H8.12231C5.12063 23.4281 2.80326 20.7888 3.19155 17.8123L4.53139 7.5418Z" fill="white"/>
<mask id="mask5" mask-type="alpha" maskUnits="userSpaceOnUse" x="3" y="0" width="36" height="24">
<path fill-rule="evenodd" clip-rule="evenodd" d="M4.53139 7.5418C4.78568 5.59255 6.16264 3.97566 8.05704 3.45081C12.0524 2.3439 18.7857 0.59259 21.3936 0.59259C23.7502 0.59259 30.0036 2.31237 33.7887 3.42063C35.6489 3.96529 36.9902 5.56658 37.2409 7.48861L38.5877 17.8123C38.976 20.7888 36.6586 23.4281 33.6569 23.4281H8.12231C5.12063 23.4281 2.80326 20.7888 3.19155 17.8123L4.53139 7.5418Z" fill="white"/>
</mask>
<g mask="url(#mask5)">
<path d="M5.08891 7.61453C5.31462 5.88439 6.53519 4.45587 8.20716 3.99265C10.2014 3.44015 12.8744 2.72809 15.3714 2.15459C17.8909 1.57594 20.164 1.15484 21.3936 1.15484C22.4926 1.15484 24.5785 1.56568 26.9223 2.13725C29.2413 2.7028 31.7416 3.40711 33.6307 3.96022C35.2719 4.44074 36.4608 5.85506 36.6834 7.56135L38.0302 17.885C38.3746 20.5249 36.3192 22.8658 33.6569 22.8658H8.12231C5.46003 22.8658 3.40469 20.5249 3.74908 17.885L5.08891 7.61453Z" fill="white" stroke="#363A50" stroke-width="1.1245"/>
<path fill-rule="evenodd" clip-rule="evenodd" d="M28.4586 -0.0628662C28.4586 -0.0628662 37.0867 10.1927 34.3471 16.5383C21.5617 11.2392 4.42583 19.219 4.42583 19.219L-2.69238 27.2507L46.9568 23.6043L39.1763 2.82173L28.4586 -0.0628662Z" fill="black" fill-opacity="0.1"/>
</g>
<path fill-rule="evenodd" clip-rule="evenodd" d="M3.35254 20.9554C3.35254 20.9554 16.698 12.2859 38.217 21.205L33.9174 26.0073C33.9174 26.0073 25.3013 23.9829 20.5436 23.9829C16.1963 23.9829 7.50183 25.1075 7.50183 25.1075L3.35254 20.9554Z" fill="#A29D9D"/>
<mask id="mask6" mask-type="alpha" maskUnits="userSpaceOnUse" x="3" y="17" width="36" height="10">
<path fill-rule="evenodd" clip-rule="evenodd" d="M3.35254 20.9554C3.35254 20.9554 16.698 12.2859 38.217 21.205L33.9174 26.0073C33.9174 26.0073 25.3013 23.9829 20.5436 23.9829C16.1963 23.9829 7.50183 25.1075 7.50183 25.1075L3.35254 20.9554Z" fill="white"/>
</mask>
<g mask="url(#mask6)">
<path d="M4.26883 21.077C4.66114 20.8665 5.23914 20.5778 5.99358 20.2578C7.54643 19.599 9.8459 18.8074 12.8119 18.2894C18.6014 17.2783 26.9491 17.3059 37.2655 21.4249L33.7199 25.385C33.7013 25.3808 33.682 25.3764 33.6619 25.3719C33.4153 25.3161 33.0582 25.2366 32.6151 25.1413C31.729 24.9506 30.4977 24.6964 29.1165 24.4421C26.3668 23.9359 22.9787 23.4206 20.5436 23.4206C18.3375 23.4206 15.0507 23.7049 12.3346 23.9859C10.9724 24.1269 9.74675 24.2678 8.86161 24.3735C8.41898 24.4264 8.06136 24.4704 7.81423 24.5013C7.77485 24.5062 7.73827 24.5108 7.7046 24.515L4.26883 21.077Z" fill="#F7334C" stroke="#363A50" stroke-width="1.1245" stroke-linecap="round"/>
<path fill-rule="evenodd" clip-rule="evenodd" d="M25.8188 17.8391C25.8188 17.8391 21.4458 21.2175 6.45247 24.466C-8.54084 27.7146 34.5649 26.5901 34.5649 26.5901L39.4377 20.2179L25.8188 17.8391Z" fill="black" fill-opacity="0.05"/>
</g>
<path fill-rule="evenodd" clip-rule="evenodd" d="M19.4473 33.8554C19.4473 33.8554 22.6958 35.3547 21.0715 28.4828L23.0706 33.6055L21.1965 35.4797L19.4473 33.8554Z" fill="black" fill-opacity="0.05"/>
</svg>
